<mxfile host="Electron" modified="2024-09-01T17:07:29.930Z" agent="Mozilla/5.0 (Windows NT 10.0; Win64; x64) AppleWebKit/537.36 (KHTML, like Gecko) draw.io/22.1.16 Chrome/120.0.6099.109 Electron/28.1.0 Safari/537.36" etag="87I6FKbRTJSWQq7d8ZPz" version="22.1.16" type="device">
  <diagram name="Page-1" id="jGYrgMeWgzRHihw5mkme">
    <mxGraphModel dx="1195" dy="797" grid="1" gridSize="10" guides="1" tooltips="1" connect="1" arrows="1" fold="1" page="1" pageScale="1" pageWidth="800" pageHeight="440" math="0" shadow="0">
      <root>
        <mxCell id="0" />
        <mxCell id="1" parent="0" />
        <mxCell id="gUJvp45BaeT13zwW8o7G-83" value="" style="rounded=0;whiteSpace=wrap;html=1;dashed=1;" vertex="1" parent="1">
          <mxGeometry x="330" y="230" width="140" height="200" as="geometry" />
        </mxCell>
        <mxCell id="gUJvp45BaeT13zwW8o7G-62" value="0x7fffffffdc20" style="text;strokeColor=none;align=right;fillColor=none;html=1;verticalAlign=middle;whiteSpace=wrap;rounded=0;fontFamily=Lucida Console;" vertex="1" parent="1">
          <mxGeometry x="200" y="360" width="120" height="30" as="geometry" />
        </mxCell>
        <mxCell id="gUJvp45BaeT13zwW8o7G-63" value="0x7fffffffdc30" style="rounded=0;whiteSpace=wrap;html=1;fontFamily=Lucida Console;fillColor=#E1D5E7;strokeColor=default;" vertex="1" parent="1">
          <mxGeometry x="340" y="360" width="120" height="30" as="geometry" />
        </mxCell>
        <mxCell id="gUJvp45BaeT13zwW8o7G-64" value="0x5555555551ff" style="rounded=0;whiteSpace=wrap;html=1;fontFamily=Lucida Console;fillColor=#d5e8d4;strokeColor=default;" vertex="1" parent="1">
          <mxGeometry x="340" y="390" width="120" height="30" as="geometry" />
        </mxCell>
        <mxCell id="gUJvp45BaeT13zwW8o7G-65" value="Frame Pointer SauvegardÃ©" style="text;strokeColor=none;align=left;fillColor=none;html=1;verticalAlign=middle;whiteSpace=wrap;rounded=0;" vertex="1" parent="1">
          <mxGeometry x="480" y="360" width="180" height="30" as="geometry" />
        </mxCell>
        <mxCell id="gUJvp45BaeT13zwW8o7G-66" value="Adresse de retour" style="text;strokeColor=none;align=left;fillColor=none;html=1;verticalAlign=middle;whiteSpace=wrap;rounded=0;" vertex="1" parent="1">
          <mxGeometry x="480" y="390" width="180" height="30" as="geometry" />
        </mxCell>
        <mxCell id="gUJvp45BaeT13zwW8o7G-67" value="6" style="rounded=0;whiteSpace=wrap;html=1;fontFamily=Lucida Console;fillColor=#dae8fc;strokeColor=default;" vertex="1" parent="1">
          <mxGeometry x="340" y="330" width="120" height="30" as="geometry" />
        </mxCell>
        <mxCell id="gUJvp45BaeT13zwW8o7G-68" value="1" style="rounded=0;whiteSpace=wrap;html=1;fontFamily=Lucida Console;fillColor=#dae8fc;strokeColor=default;" vertex="1" parent="1">
          <mxGeometry x="340" y="300" width="120" height="30" as="geometry" />
        </mxCell>
        <mxCell id="gUJvp45BaeT13zwW8o7G-69" value="Variable locale next" style="text;strokeColor=none;align=left;fillColor=none;html=1;verticalAlign=middle;whiteSpace=wrap;rounded=0;" vertex="1" parent="1">
          <mxGeometry x="480" y="330" width="180" height="30" as="geometry" />
        </mxCell>
        <mxCell id="gUJvp45BaeT13zwW8o7G-70" value="Variable locale level" style="text;strokeColor=none;align=left;fillColor=none;html=1;verticalAlign=middle;whiteSpace=wrap;rounded=0;" vertex="1" parent="1">
          <mxGeometry x="480" y="300" width="180" height="30" as="geometry" />
        </mxCell>
        <mxCell id="gUJvp45BaeT13zwW8o7G-71" value="12" style="rounded=0;whiteSpace=wrap;html=1;fontFamily=Lucida Console;fillColor=#fff2cc;strokeColor=default;" vertex="1" parent="1">
          <mxGeometry x="340" y="270" width="120" height="30" as="geometry" />
        </mxCell>
        <mxCell id="gUJvp45BaeT13zwW8o7G-72" value="0" style="rounded=0;whiteSpace=wrap;html=1;fontFamily=Lucida Console;fillColor=#fff2cc;strokeColor=default;" vertex="1" parent="1">
          <mxGeometry x="340" y="240" width="120" height="30" as="geometry" />
        </mxCell>
        <mxCell id="gUJvp45BaeT13zwW8o7G-73" value="Argument 0 : n" style="text;strokeColor=none;align=left;fillColor=none;html=1;verticalAlign=middle;whiteSpace=wrap;rounded=0;" vertex="1" parent="1">
          <mxGeometry x="480" y="270" width="180" height="30" as="geometry" />
        </mxCell>
        <mxCell id="gUJvp45BaeT13zwW8o7G-74" value="Argument 1 : i" style="text;strokeColor=none;align=left;fillColor=none;html=1;verticalAlign=middle;whiteSpace=wrap;rounded=0;" vertex="1" parent="1">
          <mxGeometry x="480" y="240" width="180" height="30" as="geometry" />
        </mxCell>
        <mxCell id="gUJvp45BaeT13zwW8o7G-78" value="0x7fffffffdc28" style="text;strokeColor=none;align=right;fillColor=none;html=1;verticalAlign=middle;whiteSpace=wrap;rounded=0;fontFamily=Lucida Console;" vertex="1" parent="1">
          <mxGeometry x="200" y="390" width="120" height="30" as="geometry" />
        </mxCell>
        <mxCell id="gUJvp45BaeT13zwW8o7G-79" value="0x7fffffffdc18" style="text;strokeColor=none;align=right;fillColor=none;html=1;verticalAlign=middle;whiteSpace=wrap;rounded=0;fontFamily=Lucida Console;" vertex="1" parent="1">
          <mxGeometry x="200" y="330" width="120" height="30" as="geometry" />
        </mxCell>
        <mxCell id="gUJvp45BaeT13zwW8o7G-80" value="0x7fffffffdc10" style="text;strokeColor=none;align=right;fillColor=none;html=1;verticalAlign=middle;whiteSpace=wrap;rounded=0;fontFamily=Lucida Console;" vertex="1" parent="1">
          <mxGeometry x="200" y="300" width="120" height="30" as="geometry" />
        </mxCell>
        <mxCell id="gUJvp45BaeT13zwW8o7G-81" value="0x7fffffffdc00" style="text;strokeColor=none;align=right;fillColor=none;html=1;verticalAlign=middle;whiteSpace=wrap;rounded=0;fontFamily=Lucida Console;" vertex="1" parent="1">
          <mxGeometry x="200" y="240" width="120" height="30" as="geometry" />
        </mxCell>
        <mxCell id="gUJvp45BaeT13zwW8o7G-82" value="0x7fffffffdc08" style="text;strokeColor=none;align=right;fillColor=none;html=1;verticalAlign=middle;whiteSpace=wrap;rounded=0;fontFamily=Lucida Console;" vertex="1" parent="1">
          <mxGeometry x="200" y="270" width="120" height="30" as="geometry" />
        </mxCell>
        <mxCell id="gUJvp45BaeT13zwW8o7G-84" value="" style="rounded=0;whiteSpace=wrap;html=1;dashed=1;" vertex="1" parent="1">
          <mxGeometry x="330" y="10" width="140" height="200" as="geometry" />
        </mxCell>
        <mxCell id="gUJvp45BaeT13zwW8o7G-88" value="0x7fffffffdc20" style="text;strokeColor=none;align=right;fillColor=none;html=1;verticalAlign=middle;whiteSpace=wrap;rounded=0;fontFamily=Lucida Console;" vertex="1" parent="1">
          <mxGeometry x="200" y="140" width="120" height="30" as="geometry" />
        </mxCell>
        <mxCell id="gUJvp45BaeT13zwW8o7G-109" style="edgeStyle=orthogonalEdgeStyle;rounded=0;orthogonalLoop=1;jettySize=auto;html=1;exitX=1;exitY=0.5;exitDx=0;exitDy=0;entryX=0;entryY=0.5;entryDx=0;entryDy=0;" edge="1" parent="1" source="gUJvp45BaeT13zwW8o7G-89" target="gUJvp45BaeT13zwW8o7G-62">
          <mxGeometry relative="1" as="geometry">
            <Array as="points">
              <mxPoint x="480" y="155" />
              <mxPoint x="480" y="220" />
              <mxPoint x="180" y="220" />
              <mxPoint x="180" y="375" />
            </Array>
          </mxGeometry>
        </mxCell>
        <mxCell id="gUJvp45BaeT13zwW8o7G-89" value="0x7fffffffdc20" style="rounded=0;whiteSpace=wrap;html=1;fontFamily=Lucida Console;fillColor=#E1D5E7;strokeColor=default;" vertex="1" parent="1">
          <mxGeometry x="340" y="140" width="120" height="30" as="geometry" />
        </mxCell>
        <mxCell id="gUJvp45BaeT13zwW8o7G-90" value="0x5555555551e6" style="rounded=0;whiteSpace=wrap;html=1;fontFamily=Lucida Console;fillColor=#d5e8d4;strokeColor=default;" vertex="1" parent="1">
          <mxGeometry x="340" y="170" width="120" height="30" as="geometry" />
        </mxCell>
        <mxCell id="gUJvp45BaeT13zwW8o7G-93" value="3" style="rounded=0;whiteSpace=wrap;html=1;fontFamily=Lucida Console;fillColor=#dae8fc;strokeColor=default;" vertex="1" parent="1">
          <mxGeometry x="340" y="110" width="120" height="30" as="geometry" />
        </mxCell>
        <mxCell id="gUJvp45BaeT13zwW8o7G-94" value="2" style="rounded=0;whiteSpace=wrap;html=1;fontFamily=Lucida Console;fillColor=#dae8fc;strokeColor=default;" vertex="1" parent="1">
          <mxGeometry x="340" y="80" width="120" height="30" as="geometry" />
        </mxCell>
        <mxCell id="gUJvp45BaeT13zwW8o7G-97" value="6" style="rounded=0;whiteSpace=wrap;html=1;fontFamily=Lucida Console;fillColor=#fff2cc;strokeColor=default;" vertex="1" parent="1">
          <mxGeometry x="340" y="50" width="120" height="30" as="geometry" />
        </mxCell>
        <mxCell id="gUJvp45BaeT13zwW8o7G-98" value="1" style="rounded=0;whiteSpace=wrap;html=1;fontFamily=Lucida Console;fillColor=#fff2cc;strokeColor=default;" vertex="1" parent="1">
          <mxGeometry x="340" y="20" width="120" height="30" as="geometry" />
        </mxCell>
        <mxCell id="gUJvp45BaeT13zwW8o7G-104" value="0x7fffffffdc28" style="text;strokeColor=none;align=right;fillColor=none;html=1;verticalAlign=middle;whiteSpace=wrap;rounded=0;fontFamily=Lucida Console;" vertex="1" parent="1">
          <mxGeometry x="200" y="170" width="120" height="30" as="geometry" />
        </mxCell>
        <mxCell id="gUJvp45BaeT13zwW8o7G-105" value="0x7fffffffdc18" style="text;strokeColor=none;align=right;fillColor=none;html=1;verticalAlign=middle;whiteSpace=wrap;rounded=0;fontFamily=Lucida Console;" vertex="1" parent="1">
          <mxGeometry x="200" y="110" width="120" height="30" as="geometry" />
        </mxCell>
        <mxCell id="gUJvp45BaeT13zwW8o7G-106" value="0x7fffffffdc10" style="text;strokeColor=none;align=right;fillColor=none;html=1;verticalAlign=middle;whiteSpace=wrap;rounded=0;fontFamily=Lucida Console;" vertex="1" parent="1">
          <mxGeometry x="200" y="80" width="120" height="30" as="geometry" />
        </mxCell>
        <mxCell id="gUJvp45BaeT13zwW8o7G-107" value="0x7fffffffdc00" style="text;strokeColor=none;align=right;fillColor=none;html=1;verticalAlign=middle;whiteSpace=wrap;rounded=0;fontFamily=Lucida Console;" vertex="1" parent="1">
          <mxGeometry x="200" y="20" width="120" height="30" as="geometry" />
        </mxCell>
        <mxCell id="gUJvp45BaeT13zwW8o7G-108" value="0x7fffffffdc08" style="text;strokeColor=none;align=right;fillColor=none;html=1;verticalAlign=middle;whiteSpace=wrap;rounded=0;fontFamily=Lucida Console;" vertex="1" parent="1">
          <mxGeometry x="200" y="50" width="120" height="30" as="geometry" />
        </mxCell>
      </root>
    </mxGraphModel>
  </diagram>
</mxfile>
